<?xml version="1.0" standalone="no"?>
<!DOCTYPE svg PUBLIC "-//W3C//DTD SVG 20010904//EN"
 "http://www.w3.org/TR/2001/REC-SVG-20010904/DTD/svg10.dtd">
<svg version="1.0" xmlns="http://www.w3.org/2000/svg"
 width="60.000000pt" height="60.000000pt" viewBox="0 0 60.000000 60.000000"
 preserveAspectRatio="xMidYMid meet">

<g transform="translate(0.000000,60.000000) scale(0.100000,-0.100000)"
fill="#000000" stroke="none">
<path d="M0 300 l0 -300 300 0 300 0 0 300 0 300 -300 0 -300 0 0 -300z m245
207 c-56 -22 -72 -36 -93 -79 l-21 -43 -1 68 0 67 73 -1 c66 0 69 -2 42 -12z
m225 -54 l-1 -68 -21 43 c-21 43 -37 57 -93 79 -27 10 -24 12 43 12 l72 1 0
-67z m-201 -132 c10 -7 11 -13 2 -30 -7 -12 -16 -19 -22 -16 -5 4 -9 1 -9 -4
0 -14 -47 -14 -55 -1 -3 5 -3 21 1 35 5 20 12 25 38 25 17 0 37 -4 45 -9z
m149 -3 c14 -14 16 -32 3 -24 -5 3 -14 -1 -21 -9 -11 -13 -10 -14 5 -9 13 5
16 4 11 -4 -11 -19 -50 -14 -74 8 -25 23 -28 36 -9 43 23 10 73 7 85 -5z
m-274 -55 c1 -42 4 -48 26 -53 22 -5 25 -11 25 -50 0 -41 2 -44 44 -67 l44
-23 -76 0 -77 0 0 127 c0 69 3 123 7 120 3 -4 7 -28 7 -54z m326 -68 l0 -125
-77 0 -76 0 44 23 c42 23 44 26 44 67 0 39 3 45 25 50 19 5 25 13 26 36 1 53
4 74 9 74 3 0 5 -56 5 -125z m-149 73 c18 -22 26 -58 13 -58 -4 0 -13 8 -20
18 -13 16 -15 16 -29 -2 -26 -34 -38 -5 -12 32 12 17 24 32 25 32 2 0 12 -10
23 -22z m-50 -77 c8 12 11 11 19 -1 9 -13 11 -13 20 0 8 12 11 13 19 1 5 -8
10 -9 12 -3 3 7 11 6 23 -3 10 -8 15 -19 11 -25 -6 -9 -10 -9 -16 1 -7 11 -9
9 -10 -6 0 -13 -3 -15 -6 -6 -5 11 -7 11 -14 0 -8 -12 -11 -11 -19 1 -9 13
-11 13 -20 0 -9 -13 -11 -13 -20 0 -9 13 -10 13 -11 0 0 -10 -3 -8 -9 5 -5 11
-9 14 -9 7 -1 -18 -21 -4 -21 14 0 8 4 13 9 9 5 -3 13 0 17 7 6 9 9 9 12 -1 4
-11 6 -11 13 0z"/>
<path d="M197 293 c-12 -11 -8 -19 13 -20 13 -1 20 4 19 15 0 12 -2 13 -6 3
-4 -9 -7 -10 -12 -2 -4 6 -10 8 -14 4z"/>
<path d="M361 294 c0 -11 3 -14 6 -6 3 7 2 16 -1 19 -3 4 -6 -2 -5 -13z"/>
</g>
</svg>
